<?xml version="1.0" encoding="UTF-8"?>
<mxfile host="app.diagrams.net" modified="2025-06-29T00:00:00.000Z" agent="AI Generated" version="21.5.2" type="device">
  <diagram id="RMO_Landscaping_ERD" name="RMO Landscaping ERD">
    <mxGraphModel dx="2000" dy="2000" grid="1" gridSize="10" guides="1" tooltips="1" connect="1" arrows="1" fold="1" page="1" pageScale="1" pageWidth="1169" pageHeight="827" background="#ffffff">
      <root>
        <mxCell id="0"/>
        <mxCell id="1" parent="0"/>
        
        <!-- User Entity -->
        <mxCell id="user_entity" value="User&#10;--&#10;id: String [PK]&#10;email: String [unique]&#10;name: String?&#10;password: String&#10;role: UserRole&#10;phone: String?&#10;company: String?&#10;notes: Text?&#10;preferences: Json?&#10;active: Boolean&#10;createdAt: DateTime&#10;updatedAt: DateTime" style="swimlane;fontStyle=0;childLayout=stackLayout;horizontal=1;startSize=260;fillColor=#e1d5e7;horizontalStack=0;resizeParent=1;resizeParentMax=0;resizeLast=0;collapsible=1;marginBottom=0;strokeColor=#9673a6;" vertex="1" parent="1">
          <mxGeometry x="40" y="40" width="200" height="260" as="geometry"/>
        </mxCell>
        <!-- Contract Entity -->
        <mxCell id="contract_entity" value="Contract&#10;--&#10;id: String [PK]&#10;customerId: String [FK]&#10;status: ContractStatus&#10;startDate: DateTime&#10;endDate: DateTime?&#10;totalValue: Decimal&#10;terms: Text?&#10;notes: Text?&#10;documents: Json?&#10;createdAt: DateTime&#10;updatedAt: DateTime" style="swimlane;fontStyle=0;childLayout=stackLayout;horizontal=1;startSize=220;fillColor=#d5e8d4;horizontalStack=0;resizeParent=1;resizeParentMax=0;resizeLast=0;collapsible=1;marginBottom=0;strokeColor=#82b366;" vertex="1" parent="1">
          <mxGeometry x="320" y="40" width="200" height="220" as="geometry"/>
        </mxCell>
        <!-- Area Entity -->
        <mxCell id="area_entity" value="Area&#10;--&#10;id: String [PK]&#10;name: String&#10;description: String?&#10;size: Float&#10;type: AreaType&#10;addressId: String [FK]&#10;notes: String?&#10;createdAt: DateTime&#10;updatedAt: DateTime" style="swimlane;fontStyle=0;childLayout=stackLayout;horizontal=1;startSize=180;fillColor=#fff2cc;horizontalStack=0;resizeParent=1;resizeParentMax=0;resizeLast=0;collapsible=1;marginBottom=0;strokeColor=#d6b656;" vertex="1" parent="1">
          <mxGeometry x="600" y="40" width="200" height="180" as="geometry"/>
        </mxCell>
        <!-- Service Entity -->
        <mxCell id="service_entity" value="Service&#10;--&#10;id: String [PK]&#10;contractId: String [FK]&#10;type: ServiceType&#10;frequency: ServiceFrequency&#10;price: Decimal&#10;description: Text&#10;areaId: String [FK]&#10;estimatedDuration: Int&#10;createdAt: DateTime&#10;updatedAt: DateTime" style="swimlane;fontStyle=0;childLayout=stackLayout;horizontal=1;startSize=200;fillColor=#ffe6cc;horizontalStack=0;resizeParent=1;resizeParentMax=0;resizeLast=0;collapsible=1;marginBottom=0;strokeColor=#d79b00;" vertex="1" parent="1">
          <mxGeometry x="40" y="280" width="200" height="200" as="geometry"/>
        </mxCell>
        <!-- Schedule Entity -->
        <mxCell id="schedule_entity" value="Schedule&#10;--&#10;id: String [PK]&#10;serviceId: String [FK]&#10;date: DateTime&#10;status: ScheduleStatus&#10;notes: Text?&#10;createdAt: DateTime&#10;updatedAt: DateTime" style="swimlane;fontStyle=0;childLayout=stackLayout;horizontal=1;startSize=140;fillColor=#f8cecc;horizontalStack=0;resizeParent=1;resizeParentMax=0;resizeLast=0;collapsible=1;marginBottom=0;strokeColor=#b85450;" vertex="1" parent="1">
          <mxGeometry x="320" y="280" width="200" height="140" as="geometry"/>
        </mxCell>

        <!-- Assignment Entity -->
        <mxCell id="assignment_entity" value="Assignment&#10;--&#10;id: String [PK]&#10;scheduleId: String [FK]&#10;workerId: String [FK]&#10;status: AssignmentStatus&#10;startTime: DateTime?&#10;endTime: DateTime?&#10;notes: String?&#10;createdAt: DateTime&#10;updatedAt: DateTime" style="swimlane;fontStyle=0;childLayout=stackLayout;horizontal=1;startSize=180;fillColor=#e1d5e7;horizontalStack=0;resizeParent=1;resizeParentMax=0;resizeLast=0;collapsible=1;marginBottom=0;strokeColor=#9673a6;" vertex="1" parent="1">
          <mxGeometry x="600" y="280" width="200" height="180" as="geometry"/>
        </mxCell>

        <!-- Equipment Entity -->
        <mxCell id="equipment_entity" value="Equipment&#10;--&#10;id: String [PK]&#10;name: String&#10;type: EquipmentType&#10;status: EquipmentStatus&#10;description: String?&#10;serialNumber: String?&#10;purchaseDate: DateTime?&#10;lastMaintenance: DateTime?&#10;nextMaintenance: DateTime?&#10;notes: String?&#10;createdAt: DateTime&#10;updatedAt: DateTime" style="swimlane;fontStyle=0;childLayout=stackLayout;horizontal=1;startSize=240;fillColor=#dae8fc;horizontalStack=0;resizeParent=1;resizeParentMax=0;resizeLast=0;collapsible=1;marginBottom=0;strokeColor=#6c8ebf;" vertex="1" parent="1">
          <mxGeometry x="880" y="40" width="200" height="240" as="geometry"/>
        </mxCell>

        <!-- EquipmentAssignment Entity -->
        <mxCell id="equipment_assignment_entity" value="EquipmentAssignment&#10;--&#10;id: String [PK]&#10;equipmentId: String [FK]&#10;workerId: String [FK]&#10;startTime: DateTime&#10;endTime: DateTime?&#10;status: EquipmentAssignmentStatus&#10;notes: String?&#10;createdAt: DateTime&#10;updatedAt: DateTime" style="swimlane;fontStyle=0;childLayout=stackLayout;horizontal=1;startSize=180;fillColor=#f8cecc;horizontalStack=0;resizeParent=1;resizeParentMax=0;resizeLast=0;collapsible=1;marginBottom=0;strokeColor=#b85450;" vertex="1" parent="1">
          <mxGeometry x="880" y="280" width="200" height="180" as="geometry"/>
        </mxCell>

        <!-- Invoice Entity -->
        <mxCell id="invoice_entity" value="Invoice&#10;--&#10;id: String [PK]&#10;contractId: String [FK]&#10;amount: Float&#10;status: InvoiceStatus&#10;dueDate: DateTime&#10;issuedDate: DateTime&#10;paidDate: DateTime?&#10;notes: String?&#10;createdAt: DateTime&#10;updatedAt: DateTime" style="swimlane;fontStyle=0;childLayout=stackLayout;horizontal=1;startSize=200;fillColor=#d5e8d4;horizontalStack=0;resizeParent=1;resizeParentMax=0;resizeLast=0;collapsible=1;marginBottom=0;strokeColor=#82b366;" vertex="1" parent="1">
          <mxGeometry x="40" y="520" width="200" height="200" as="geometry"/>
        </mxCell>

        <!-- Payment Entity -->
        <mxCell id="payment_entity" value="Payment&#10;--&#10;id: String [PK]&#10;invoiceId: String [FK]&#10;amount: Float&#10;method: PaymentMethod&#10;status: PaymentStatus&#10;transactionId: String?&#10;paidDate: DateTime&#10;notes: String?&#10;createdAt: DateTime&#10;updatedAt: DateTime" style="swimlane;fontStyle=0;childLayout=stackLayout;horizontal=1;startSize=200;fillColor=#ffe6cc;horizontalStack=0;resizeParent=1;resizeParentMax=0;resizeLast=0;collapsible=1;marginBottom=0;strokeColor=#d79b00;" vertex="1" parent="1">
          <mxGeometry x="320" y="520" width="200" height="200" as="geometry"/>
        </mxCell>

        <!-- Image Entity -->
        <mxCell id="image_entity" value="Image&#10;--&#10;id: String [PK]&#10;url: String&#10;type: ImageType&#10;areaId: String [FK]&#10;description: String?&#10;createdAt: DateTime&#10;updatedAt: DateTime" style="swimlane;fontStyle=0;childLayout=stackLayout;horizontal=1;startSize=140;fillColor=#fff2cc;horizontalStack=0;resizeParent=1;resizeParentMax=0;resizeLast=0;collapsible=1;marginBottom=0;strokeColor=#d6b656;" vertex="1" parent="1">
          <mxGeometry x="600" y="520" width="200" height="140" as="geometry"/>
        </mxCell>

        <!-- Relationships -->
        <!-- User - Address (1:1) -->
        <mxCell id="user_address_rel" value="" style="edgeStyle=entityRelationEdgeStyle;fontSize=12;html=1;endArrow=ERmandOne;startArrow=ERmandOne;rounded=0;" edge="1" parent="1" source="user_entity" target="address_entity">
          <mxGeometry width="100" height="100" relative="1" as="geometry"/>
        </mxCell>

        <!-- User - Contract (1:N) -->
        <mxCell id="user_contract_rel" value="" style="edgeStyle=entityRelationEdgeStyle;fontSize=12;html=1;endArrow=ERoneToMany;rounded=0;" edge="1" parent="1" source="user_entity" target="contract_entity">
          <mxGeometry width="100" height="100" relative="1" as="geometry"/>
        </mxCell>

        <!-- Contract - Service (1:N) -->
        <mxCell id="contract_service_rel" value="" style="edgeStyle=entityRelationEdgeStyle;fontSize=12;html=1;endArrow=ERoneToMany;rounded=0;" edge="1" parent="1" source="contract_entity" target="service_entity">
          <mxGeometry width="100" height="100" relative="1" as="geometry"/>
        </mxCell>

        <!-- Service - Schedule (1:N) -->
        <mxCell id="service_schedule_rel" value="" style="edgeStyle=entityRelationEdgeStyle;fontSize=12;html=1;endArrow=ERoneToMany;rounded=0;" edge="1" parent="1" source="service_entity" target="schedule_entity">
          <mxGeometry width="100" height="100" relative="1" as="geometry"/>
        </mxCell>

        <!-- Schedule - Assignment (1:N) -->
        <mxCell id="schedule_assignment_rel" value="" style="edgeStyle=entityRelationEdgeStyle;fontSize=12;html=1;endArrow=ERoneToMany;rounded=0;" edge="1" parent="1" source="schedule_entity" target="assignment_entity">
          <mxGeometry width="100" height="100" relative="1" as="geometry"/>
        </mxCell>

        <!-- Assignment - User (N:1) -->
        <mxCell id="assignment_user_rel" value="" style="edgeStyle=entityRelationEdgeStyle;fontSize=12;html=1;endArrow=ERmandOne;startArrow=ERoneToMany;rounded=0;" edge="1" parent="1" source="assignment_entity" target="user_entity">
          <mxGeometry width="100" height="100" relative="1" as="geometry"/>
        </mxCell>

        <!-- Equipment - EquipmentAssignment (1:N) -->
        <mxCell id="equipment_assignment_rel" value="" style="edgeStyle=entityRelationEdgeStyle;fontSize=12;html=1;endArrow=ERoneToMany;rounded=0;" edge="1" parent="1" source="equipment_entity" target="equipment_assignment_entity">
          <mxGeometry width="100" height="100" relative="1" as="geometry"/>
        </mxCell>

        <!-- Equipment Assignment - User (N:1) -->
        <mxCell id="equipment_assignment_user_rel" value="" style="edgeStyle=entityRelationEdgeStyle;fontSize=12;html=1;endArrow=ERmandOne;startArrow=ERoneToMany;rounded=0;" edge="1" parent="1" source="equipment_assignment_entity" target="user_entity">
          <mxGeometry width="100" height="100" relative="1" as="geometry"/>
        </mxCell>

        <!-- Service - Equipment (N:N) -->
        <mxCell id="service_equipment_rel" value="" style="edgeStyle=entityRelationEdgeStyle;fontSize=12;html=1;endArrow=ERmany;startArrow=ERmany;rounded=0;" edge="1" parent="1" source="service_entity" target="equipment_entity">
          <mxGeometry width="100" height="100" relative="1" as="geometry"/>
        </mxCell>

        <!-- Contract - Invoice (1:N) -->
        <mxCell id="contract_invoice_rel" value="" style="edgeStyle=entityRelationEdgeStyle;fontSize=12;html=1;endArrow=ERoneToMany;rounded=0;" edge="1" parent="1" source="contract_entity" target="invoice_entity">
          <mxGeometry width="100" height="100" relative="1" as="geometry"/>
        </mxCell>

        <!-- Invoice - Payment (1:N) -->
        <mxCell id="invoice_payment_rel" value="" style="edgeStyle=entityRelationEdgeStyle;fontSize=12;html=1;endArrow=ERoneToMany;rounded=0;" edge="1" parent="1" source="invoice_entity" target="payment_entity">
          <mxGeometry width="100" height="100" relative="1" as="geometry"/>
        </mxCell>

        <!-- Area - Image (1:N) -->
        <mxCell id="area_image_rel" value="" style="edgeStyle=entityRelationEdgeStyle;fontSize=12;html=1;endArrow=ERoneToMany;rounded=0;" edge="1" parent="1" source="area_entity" target="image_entity">
          <mxGeometry width="100" height="100" relative="1" as="geometry"/>
        </mxCell>
      </root>
    </mxGraphModel>
  </diagram>
</mxfile>
